<svg xmlns="http://www.w3.org/2000/svg" width="27.466" height="26.291" viewBox="0 0 27.466 26.291">
    <defs>
        <style>
            .cls-1{fill:#0e1426;stroke:#0e1426;stroke-width:.5px}
        </style>
    </defs>
    <g id="Componente_417_25" transform="translate(.251 .262)">
        <path id="Trazado_44466" d="M22.977 22.416a.86.86 0 0 1-.271-.045L.569 14.806a.841.841 0 0 1-.119-1.541L25.669.1a.842.842 0 0 1 1.222.87L23.808 21.7a.842.842 0 0 1-.832.716zM2.966 13.848l19.327 6.606 2.691-18.1z" class="cls-1" transform="translate(0 .001)"/>
        <path id="Trazado_44467" d="M9.591 25.779a.84.84 0 0 1-.841-.841v-7.565a.846.846 0 0 1 .225-.574L24.386.267a.841.841 0 0 1 1.231 1.148L10.431 17.7v4.672l2.805-3.819a.841.841 0 1 1 1.355 1l-4.323 5.884a.846.846 0 0 1-.678.342z" class="cls-1" transform="translate(1.057 .001)"/>
    </g>
</svg>
