<svg xmlns="http://www.w3.org/2000/svg" width="28" height="28" viewBox="0 0 28 28">
    <defs>
        <clipPath id="clip-path">
            <path id="Icon-Notifications" d="M13.493 27a3.675 3.675 0 0 1-3.179-1.834 1.227 1.227 0 1 1 2.124-1.23 1.242 1.242 0 0 0 .445.444 1.215 1.215 0 0 0 .613.166 1.235 1.235 0 0 0 1.065-.613 1.227 1.227 0 0 1 1.678-.444 1.224 1.224 0 0 1 .444 1.677A3.693 3.693 0 0 1 13.493 27zm12.279-6.132H1.227a1.227 1.227 0 0 1 0-2.455 2.458 2.458 0 0 0 2.454-2.456V9.82a9.818 9.818 0 1 1 19.637 0v6.137a2.458 2.458 0 0 0 2.454 2.456 1.227 1.227 0 0 1 0 2.455zM13.5 2.455A7.373 7.373 0 0 0 6.137 9.82v6.137a4.911 4.911 0 0 1-.659 2.456h16.046a4.9 4.9 0 0 1-.659-2.456V9.82A7.373 7.373 0 0 0 13.5 2.455z" class="cls-1"/>
        </clipPath>
        <style>
            .cls-1{fill:#0e1426;stroke:transparent}
        </style>
    </defs>
    <g id="Componente_418_25" transform="translate(.5 .5)">
        <g id="Componente_403_95">
            <path id="Icon-Notifications-2" d="M13.493 27a3.675 3.675 0 0 1-3.179-1.834 1.227 1.227 0 1 1 2.124-1.23 1.242 1.242 0 0 0 .445.444 1.215 1.215 0 0 0 .613.166 1.235 1.235 0 0 0 1.065-.613 1.227 1.227 0 0 1 1.678-.444 1.224 1.224 0 0 1 .444 1.677A3.693 3.693 0 0 1 13.493 27zm12.279-6.132H1.227a1.227 1.227 0 0 1 0-2.455 2.458 2.458 0 0 0 2.454-2.456V9.82a9.818 9.818 0 1 1 19.637 0v6.137a2.458 2.458 0 0 0 2.454 2.456 1.227 1.227 0 0 1 0 2.455zM13.5 2.455A7.373 7.373 0 0 0 6.137 9.82v6.137a4.911 4.911 0 0 1-.659 2.456h16.046a4.9 4.9 0 0 1-.659-2.456V9.82A7.373 7.373 0 0 0 13.5 2.455z" class="cls-1"/>
        </g>
    </g>
</svg>
